HIERARCHY
ROOT Hips
{
	OFFSET -0.242331598161 -23.2236320902 2.53401171434
	CHANNELS 6 Xposition Yposition Zposition Zrotation Yrotation Xrotation
	JOINT LeftHip
	{
		OFFSET 6.68720967556 -9.24270621418 -0.787267827818
		CHANNELS 3 Zrotation Yrotation Xrotation
		JOINT LeftKnee
		{
			OFFSET 3.75355688308 -38.4844112774 -0.177744773917
			CHANNELS 3 Zrotation Yrotation Xrotation
			JOINT LeftFoot
			{
				OFFSET -1.4886241916 -40.8839340047 -4.30064252311
				CHANNELS 3 Zrotation Yrotation Xrotation
				End LeftToe
				{
                                  OFFSET 2.75691473631 -5.67287211062 12.2284175878
				}
			}
		}
	}
	JOINT RightHip
	{
		OFFSET -6.51116741885 -9.13323151385 -0.5788107227
		CHANNELS 3 Zrotation Yrotation Xrotation
		JOINT RightKnee
		{
			OFFSET -4.08835333291 -39.284519027 -0.714599905138
			CHANNELS 3 Zrotation Yrotation Xrotation
			JOINT RightFoot
			{
				OFFSET 1.71492703615 -40.9334982577 -4.13768740982
				CHANNELS 3 Zrotation Yrotation Xrotation
				End RightToe
				{
                                        OFFSET -2.5971569051 -4.94610954348 12.6561339333
				}
			}
		}
	}
	JOINT Waist
	{
		OFFSET -0.266476503963 11.1827889543 -2.65433684848
		CHANNELS 3 Zrotation Yrotation Xrotation
		JOINT Spine
		{
			OFFSET 0.673410647782 14.2691467228 0.415100316871
			CHANNELS 3 Zrotation Yrotation Xrotation
                        JOINT Chest
                        {
                            OFFSET 0.115754103679 5.56511403682 2.31366574527
                            CHANNELS 3 Zrotation Yrotation Xrotation
                            JOINT Neck
                            {
                                OFFSET -0.363440418458 21.8789239772 -3.86417777977
                                CHANNELS 3 Zrotation Yrotation Xrotation
                                End Head
                                {
                                        OFFSET 0.142266031108 27.3070764216 2.07450495877
                                }
                            }
                            JOINT LeftInnerShoulder
                            {
                                OFFSET 7.9837905227 12.3999082761 -3.22330600764
                                CHANNELS 3 Zrotation Yrotation Xrotation
                                JOINT LeftShoulder
                                {
                                        OFFSET 9.33012186646 2.97062074949 -0.889084434338
                                        CHANNELS 3 Zrotation Yrotation Xrotation
                                        JOINT LeftElbow
                                        {
                                                OFFSET 26.5718326866 -1.37540851237 -2.6467790692
                                                CHANNELS 3 Zrotation Yrotation Xrotation
                                                End LeftWrist
                                                {
                                                        OFFSET 25.5222810628 0.872011895254 -0.21787468009
                                                }
                                        }
                                }
                            }
                            JOINT RightInnerShoulder
                            {
                                OFFSET -8.34921095603 12.056907063 -3.64122058586
                                CHANNELS 3 Zrotation Yrotation Xrotation
                                JOINT RightShoulder
                                {
                                        OFFSET -9.88156736978 3.26329056071 -0.814200311722
                                        CHANNELS 3 Zrotation Yrotation Xrotation
                                        JOINT RightElbow
                                        {
                                                OFFSET -25.8763596068 -1.41811594652 -2.08663399534
                                                CHANNELS 3 Zrotation Yrotation Xrotation
                                                End RightWrist
                                                {
                                                        OFFSET -26.1019065683 0.696829200121 -0.725795893458
                                                }
                                        }
                                }
                            }
                        }
                }
            }
}
MOTION
Frames: 14
Frame Time: 0.0333333333333
28.99498 3.45268 0.08726 -12.23210 34.59936 8.28236 25.83178 -0.51133 -53.40191 -12.29095 -4.08377 80.21427 -7.65918 3.84349 -5.48177 -5.98535 -11.12593 -8.13763 5.33156 -1.18379 48.29960 9.91997 -8.37453 -3.63966 -6.46038 10.93412 13.27058 -1.37977 1.76726 -1.51959 0.19324 4.73578 3.35586 -0.88694 -7.18588 -20.21900 1.37974 0.86206 -2.79070 -51.74333 -11.63268 25.52603 -170.42526 -64.04551 -165.21485 2.47679 27.90193 -7.61319 72.40086 44.04653 38.21069 -8.61833 66.36878 -2.35367
24.65074 1.33523 0.11330 -11.78145 34.36308 10.65193 26.90430 1.04080 -56.12959 -11.86495 -2.92387 82.20584 -8.70790 3.87706 -4.69325 -5.99869 -11.36925 -10.47209 5.56602 -2.69758 48.07295 10.52890 -8.87252 -3.13924 -7.33845 10.41777 12.53606 -1.90883 0.77786 -2.55116 -0.30311 4.19728 3.56606 -1.09048 -7.12376 -22.52003 3.71838 2.58692 -3.23144 -51.60547 -12.08161 27.07097 -174.45825 -57.21573 -163.60225 0.00093 27.30862 -9.10439 75.14803 48.11414 41.22899 -10.87149 66.98025 -8.82350
23.91122 5.01017 0.11044 -12.67813 33.59603 9.38271 26.68456 0.78581 -58.59083 -10.81131 -3.18465 82.66577 -8.60047 4.41245 -3.52792 -6.38067 -12.20771 -10.04375 4.53189 -4.18115 47.67293 10.48926 -10.28341 -0.53107 -7.48773 11.50704 13.28800 -1.63353 0.64733 -3.65644 0.12118 4.19688 3.88675 -0.81352 -7.07193 -21.52162 4.32244 3.71209 -2.70158 -53.12776 -10.19995 26.29399 -172.95036 -66.17802 -165.31193 0.03253 26.21135 -9.03946 78.84483 47.51891 42.85152 -14.30714 64.81576 -12.22606
26.60165 13.04457 0.10325 -15.48687 28.18221 7.65522 27.06775 -0.41989 -55.89431 -10.04960 -2.74543 83.83456 -8.94250 6.48099 -7.21020 -5.62129 -10.80838 -11.56387 5.61390 -2.32720 47.84190 12.67466 -7.25852 -0.13669 -7.62039 11.78105 12.61707 -1.20219 1.99995 -3.19629 0.49251 5.19784 3.21860 0.12138 -4.51314 -21.50914 3.27399 2.76757 -1.59493 -54.08488 -5.67919 25.79555 -161.36529 -72.73528 -176.66782 1.85062 26.56372 -7.18917 79.84284 43.77494 41.73342 -5.58477 58.91668 -1.13215
29.59853 18.86310 0.04126 -17.39296 24.90858 4.90757 26.25251 -1.02962 -54.73366 -9.88599 -3.78619 83.00027 -8.40762 6.54096 -9.19991 -6.97970 -11.45298 -10.37722 5.02665 -1.56997 45.04332 12.16567 -7.59432 -6.01659 -5.67920 12.26377 13.59282 -2.32243 3.12486 -3.71759 0.57529 5.97480 3.83765 1.39914 -4.37659 -21.72346 0.27772 2.40938 -2.05190 -58.51963 -7.18572 24.84115 -137.82261 -83.85957 161.84324 3.30182 26.06161 -4.84296 78.38824 38.98952 39.21191 5.99294 52.65605 16.05400
36.60551 27.78549 -0.05187 -16.79072 22.46154 4.57993 24.20239 -2.36911 -51.49947 -9.40876 -2.65708 77.14503 -6.51777 7.87498 -8.57219 -9.10988 -9.89695 -13.10745 3.32307 -0.18326 50.39131 13.47537 -11.41823 -3.29127 -5.07613 11.13642 13.71229 -2.81285 4.48761 -4.18869 -0.05275 5.41239 3.55655 2.10877 -4.09555 -20.99429 -4.44287 1.65407 -0.68880 -55.93760 -7.71703 22.39053 -21.41582 -87.07787 45.51644 10.19828 24.83429 -1.62358 77.81675 29.00523 38.15909 11.53374 38.98215 21.87537
45.74568 31.96948 -0.12752 -18.47666 22.83164 -1.06266 20.45424 -3.41340 -43.52365 -9.16536 -6.53407 73.18586 -4.41522 8.08288 -8.02782 -9.17063 -6.79034 -9.39010 5.83863 4.55196 55.46742 12.55887 -8.98283 -2.80203 -3.27437 9.61994 15.13304 1.84093 1.92029 1.00079 2.20573 3.38284 4.31347 0.55771 2.03542 -19.53175 -6.18250 -2.57141 1.69833 -60.75198 -4.74927 16.49489 12.20943 -67.34606 14.54763 18.53374 22.68014 2.47202 76.57418 23.98930 27.72682 -4.76422 17.27815 7.13559
50.13955 30.66539 -0.23148 -17.66945 23.75092 -3.29117 18.22951 -3.92402 -41.89621 -9.70783 -6.34288 74.96708 -2.86709 8.39146 -7.46333 -10.99552 -5.10638 -16.63959 5.13291 3.62505 75.64873 12.17525 -13.54668 -0.94981 -3.27292 7.25146 19.49400 5.29648 1.28045 -0.23506 3.10538 0.87753 4.25933 1.14664 4.48326 -22.02223 -11.12598 -1.71231 2.23038 -56.26998 -10.55335 10.93539 10.38970 -46.49435 7.66703 23.55298 13.38170 1.05982 69.74086 13.62052 19.71405 -16.23952 14.21595 -9.43928
53.98704 27.04784 -0.25339 -16.35254 16.96805 -3.13188 18.34844 -0.58312 -36.54057 -10.64661 -2.55915 75.63374 0.29262 9.37092 -9.20415 -14.87415 -3.46252 -26.99901 5.87550 4.86273 87.08513 14.10423 -14.33300 8.05983 -4.20670 3.78576 20.88650 5.27853 1.71830 -2.68775 1.93703 -0.77148 3.60466 2.45075 3.97835 -22.66829 -12.02740 5.19605 3.83397 -49.64902 -6.66199 4.63770 5.95760 -41.98534 12.66224 21.98503 2.23263 -1.58173 65.58083 3.11604 17.70128 -21.26404 27.84675 -6.60913
50.67702 24.47735 -0.29042 -15.72728 15.93931 -2.25623 18.24558 0.02435 -43.72892 -13.28333 -0.76295 83.93876 0.85602 10.67276 -14.22609 -16.53972 -6.89062 -27.07293 11.77887 4.32377 94.92995 20.16876 -12.37571 2.26974 -3.08676 4.59510 20.59407 5.09707 0.84737 -6.19423 1.46095 -1.23885 5.44084 3.33151 3.52474 -23.23381 -8.65083 8.27941 2.04661 -45.46105 -4.79989 2.63375 2.42807 -38.49766 14.40990 17.00778 -5.11061 -3.17818 59.58622 -3.87241 13.20352 -18.97849 31.41170 -6.40864
54.13100 29.27540 -0.32735 -14.25354 12.15243 -3.39610 16.62635 1.01202 -43.22554 -14.55058 0.94730 84.20491 1.11138 11.93109 -17.28791 -15.71868 -8.02167 -26.45999 13.39280 4.35574 96.43635 21.51475 -11.75970 -3.54667 -1.98117 4.51470 19.85569 5.15535 1.42057 -6.22356 1.68716 -0.72494 6.80989 4.03705 2.07544 -20.03026 -6.09473 10.86416 1.22728 -45.22860 -3.82850 1.97442 0.96097 -41.85480 15.38885 11.73523 -7.91548 -2.72134 53.77343 -6.06139 8.59314 -17.62777 30.62829 -6.26978
57.39441 34.92680 -0.39300 -12.44117 10.08985 -3.70505 14.57517 0.67421 -40.55591 -14.40880 1.46120 81.03593 1.83722 11.75795 -15.46442 -15.45608 -8.46168 -22.07582 11.74505 5.18822 86.90467 19.06328 -12.30761 -3.76796 -0.36661 3.54125 19.03681 3.71139 0.77521 -6.92361 1.91107 -0.86198 7.31991 3.23123 -2.01892 -15.69197 -4.21327 12.90996 1.73310 -44.78890 -1.49741 1.24530 0.72899 -44.98172 19.87211 6.09164 -9.56608 -3.00222 48.88253 -6.67512 5.48524 -13.58358 30.35495 -0.45199
58.03620 43.32598 -0.46676 -11.10286 5.69588 -2.96522 13.89218 0.90079 -36.79384 -12.04232 0.95512 77.54790 1.16215 15.62944 -17.03446 -15.51368 -9.93978 -21.06091 9.59292 4.05968 78.79424 19.43786 -13.32577 -9.36862 0.89671 3.38994 17.74591 2.99465 1.40854 -7.38209 2.13848 -0.04877 7.88901 4.30855 -2.67073 -13.82200 -1.58547 15.53855 1.65072 -45.59130 0.34034 0.86409 -0.80604 -51.75392 24.77020 1.29480 -11.38474 -1.80649 46.54197 -8.08840 3.44168 -12.44586 37.34528 4.39776
55.72982 50.12393 -0.50468 -10.02138 1.84197 -1.94747 12.50742 1.35587 -31.37335 -12.68199 -0.29438 71.52988 -0.67688 16.25712 -17.23259 -14.24697 -10.10588 -19.86239 9.32900 4.67792 70.53406 20.09095 -13.08452 -12.80050 1.59522 2.97040 15.76755 2.51169 2.21868 -7.39293 2.08628 0.41762 8.60619 5.48720 -2.02525 -12.20615 1.43075 19.87379 1.45046 -44.86314 2.76159 0.48853 -3.15921 -58.74805 30.59065 -2.62694 -14.58831 -2.11919 44.47545 -8.52191 2.24647 -11.11621 43.46154 8.25339
